<mxfile host="app.diagrams.net" modified="2022-11-15T13:53:59.866Z" agent="5.0 (Windows NT 10.0; Win64; x64) AppleWebKit/537.36 (KHTML, like Gecko) Chrome/107.0.0.0 Safari/537.36" etag="WffrDLJTdedPYeuvbz8W" version="20.5.3" type="github">
  <diagram id="UQaIwgQZNFvI9y2s87YT" name="Страница 1">
    <mxGraphModel dx="677" dy="435" grid="1" gridSize="10" guides="1" tooltips="1" connect="1" arrows="1" fold="1" page="1" pageScale="1" pageWidth="827" pageHeight="1169" math="0" shadow="0">
      <root>
        <mxCell id="0" />
        <mxCell id="1" parent="0" />
        <mxCell id="9g1YUz6DXll8vqnvcK5T-1" value=":DocRequest2.aspx" style="shape=umlLifeline;perimeter=lifelinePerimeter;whiteSpace=wrap;html=1;container=1;collapsible=0;recursiveResize=0;outlineConnect=0;" vertex="1" parent="1">
          <mxGeometry x="150" y="40" width="130" height="3060" as="geometry" />
        </mxCell>
        <mxCell id="9g1YUz6DXll8vqnvcK5T-4" value="Valid()" style="edgeStyle=orthogonalEdgeStyle;html=1;align=left;spacingLeft=2;endArrow=block;rounded=0;entryX=1;entryY=0;" edge="1" target="9g1YUz6DXll8vqnvcK5T-3" parent="9g1YUz6DXll8vqnvcK5T-1" source="9g1YUz6DXll8vqnvcK5T-8">
          <mxGeometry relative="1" as="geometry">
            <mxPoint x="180" y="80" as="sourcePoint" />
            <Array as="points">
              <mxPoint x="95" y="90" />
              <mxPoint x="95" y="108" />
            </Array>
          </mxGeometry>
        </mxCell>
        <mxCell id="9g1YUz6DXll8vqnvcK5T-8" value="" style="html=1;points=[];perimeter=orthogonalPerimeter;" vertex="1" parent="9g1YUz6DXll8vqnvcK5T-1">
          <mxGeometry x="60" y="70" width="10" height="330" as="geometry" />
        </mxCell>
        <mxCell id="9g1YUz6DXll8vqnvcK5T-3" value="" style="html=1;points=[];perimeter=orthogonalPerimeter;" vertex="1" parent="9g1YUz6DXll8vqnvcK5T-1">
          <mxGeometry x="65" y="108" width="10" height="190" as="geometry" />
        </mxCell>
        <mxCell id="9g1YUz6DXll8vqnvcK5T-2" value="&amp;lt;&amp;lt; change state &amp;gt;&amp;gt;&lt;br&gt;bSave_Click()" style="html=1;verticalAlign=bottom;startArrow=oval;startFill=1;endArrow=block;startSize=8;rounded=0;" edge="1" parent="1" target="9g1YUz6DXll8vqnvcK5T-1">
          <mxGeometry width="60" relative="1" as="geometry">
            <mxPoint x="80" y="110" as="sourcePoint" />
            <mxPoint x="140" y="110" as="targetPoint" />
          </mxGeometry>
        </mxCell>
        <mxCell id="9g1YUz6DXll8vqnvcK5T-6" value="internalState.Equals(InnerStateCode.sending)" style="shape=umlFrame;whiteSpace=wrap;html=1;width=280;height=20;strokeColor=#B3B3B3;" vertex="1" parent="1">
          <mxGeometry x="70" y="180" width="300" height="50" as="geometry" />
        </mxCell>
        <mxCell id="9g1YUz6DXll8vqnvcK5T-7" value="applicant_request_mr_fgbu &amp;amp;&amp;amp;&lt;br&gt;applicant_request_mr_inspect &amp;amp;&amp;amp;&lt;br&gt;internalState.Equals(InnerStateCode.project)" style="shape=umlFrame;whiteSpace=wrap;html=1;width=280;height=50;strokeColor=#B3B3B3;" vertex="1" parent="1">
          <mxGeometry x="70" y="250" width="300" height="70" as="geometry" />
        </mxCell>
      </root>
    </mxGraphModel>
  </diagram>
</mxfile>
